{
  "scale": {
    "root": "C",
    "scale": "major",
    "scaleNotes": [
      "C",
      "D",
      "E",
      "F",
      "G",
      "A",
      "B"
    ],
    "score": 7
  },
  "notes": [
    {
      "pitch": 48,
      "pitchClass": 0,
      "name": "C3",
      "start": 0,
      "duration": 0.5786458333333333,
      "velocity": 1
    },
    {
      "pitch": 50,
      "pitchClass": 2,
      "name": "D3",
      "start": 0.671875,
      "duration": 0.0697916666666667,
      "velocity": 1
    },
    {
      "pitch": 49,
      "pitchClass": 1,
      "name": "C#3",
      "start": 0.8583333333333333,
      "duration": 0.0697916666666667,
      "velocity": 1
    },
    {
      "pitch": 51,
      "pitchClass": 3,
      "name": "D#3",
      "start": 0.8583333333333333,
      "duration": 0.022916666666666696,
      "velocity": 1
    },
    {
      "pitch": 52,
      "pitchClass": 4,
      "name": "E3",
      "start": 1.3010416666666667,
      "duration": 0.5828125,
      "velocity": 1
    },
    {
      "pitch": 53,
      "pitchClass": 5,
      "name": "F3",
      "start": 1.8604166666666666,
      "duration": 0.3031250000000001,
      "velocity": 1
    },
    {
      "pitch": 57,
      "pitchClass": 9,
      "name": "A3",
      "start": 2.5130208333333335,
      "duration": 0.1401041666666667,
      "velocity": 1
    },
    {
      "pitch": 55,
      "pitchClass": 7,
      "name": "G3",
      "start": 2.839583333333333,
      "duration": 0.0697916666666667,
      "velocity": 1
    },
    {
      "pitch": 53,
      "pitchClass": 5,
      "name": "F3",
      "start": 3.119270833333333,
      "duration": 0.0697916666666667,
      "velocity": 1
    },
    {
      "pitch": 54,
      "pitchClass": 6,
      "name": "F#3",
      "start": 3.81875,
      "duration": 0.6057291666666669,
      "velocity": 1
    },
    {
      "pitch": 53,
      "pitchClass": 5,
      "name": "F3",
      "start": 4.68125,
      "duration": 0.11614583333333339,
      "velocity": 1
    },
    {
      "pitch": 52,
      "pitchClass": 4,
      "name": "E3",
      "start": 4.9609375,
      "duration": 0.06979166666666625,
      "velocity": 1
    },
    {
      "pitch": 50,
      "pitchClass": 2,
      "name": "D3",
      "start": 5.054166666666666,
      "duration": 0.1630208333333334,
      "velocity": 1
    },
    {
      "pitch": 48,
      "pitchClass": 0,
      "name": "C3",
      "start": 5.333854166666667,
      "duration": 0.1864583333333334,
      "velocity": 1
    },
    {
      "pitch": 57,
      "pitchClass": 9,
      "name": "A3",
      "start": 6.149479166666667,
      "duration": 0.48958333333333304,
      "velocity": 1
    },
    {
      "pitch": 59,
      "pitchClass": 11,
      "name": "B3",
      "start": 6.708854166666667,
      "duration": 0.48958333333333304,
      "velocity": 1
    },
    {
      "pitch": 60,
      "pitchClass": 0,
      "name": "C4",
      "start": 7.571354166666667,
      "duration": 0.5828125000000002,
      "velocity": 1
    },
    {
      "pitch": 62,
      "pitchClass": 2,
      "name": "D4",
      "start": 8.201041666666667,
      "duration": 0.11666666666666714,
      "velocity": 1
    },
    {
      "pitch": 64,
      "pitchClass": 4,
      "name": "E4",
      "start": 8.433854166666666,
      "duration": 0.16354166666666714,
      "velocity": 1
    },
    {
      "pitch": 65,
      "pitchClass": 5,
      "name": "F4",
      "start": 8.6203125,
      "duration": 0.14010416666666536,
      "velocity": 1
    },
    {
      "pitch": 64,
      "pitchClass": 4,
      "name": "E4",
      "start": 8.807291666666666,
      "duration": 0.09322916666666714,
      "velocity": 1
    },
    {
      "pitch": 63,
      "pitchClass": 3,
      "name": "D#4",
      "start": 9.25,
      "duration": 0.6526041666666664,
      "velocity": 1
    },
    {
      "pitch": 62,
      "pitchClass": 2,
      "name": "D4",
      "start": 9.972395833333334,
      "duration": 0.30312499999999964,
      "velocity": 1
    },
    {
      "pitch": 61,
      "pitchClass": 1,
      "name": "C#4",
      "start": 10.36875,
      "duration": 0.27968749999999964,
      "velocity": 1
    },
    {
      "pitch": 60,
      "pitchClass": 0,
      "name": "C4",
      "start": 10.834895833333333,
      "duration": 1.0026041666666679,
      "velocity": 1
    }
  ],
  "intervals": [
    {
      "from": "C3",
      "to": "D3",
      "semitones": 2,
      "intervalClass": 2
    },
    {
      "from": "D3",
      "to": "C#3",
      "semitones": -1,
      "intervalClass": 1
    },
    {
      "from": "C#3",
      "to": "D#3",
      "semitones": 2,
      "intervalClass": 2
    },
    {
      "from": "D#3",
      "to": "E3",
      "semitones": 1,
      "intervalClass": 1
    },
    {
      "from": "E3",
      "to": "F3",
      "semitones": 1,
      "intervalClass": 1
    },
    {
      "from": "F3",
      "to": "A3",
      "semitones": 4,
      "intervalClass": 4
    },
    {
      "from": "A3",
      "to": "G3",
      "semitones": -2,
      "intervalClass": 2
    },
    {
      "from": "G3",
      "to": "F3",
      "semitones": -2,
      "intervalClass": 2
    },
    {
      "from": "F3",
      "to": "F#3",
      "semitones": 1,
      "intervalClass": 1
    },
    {
      "from": "F#3",
      "to": "F3",
      "semitones": -1,
      "intervalClass": 1
    },
    {
      "from": "F3",
      "to": "E3",
      "semitones": -1,
      "intervalClass": 1
    },
    {
      "from": "E3",
      "to": "D3",
      "semitones": -2,
      "intervalClass": 2
    },
    {
      "from": "D3",
      "to": "C3",
      "semitones": -2,
      "intervalClass": 2
    },
    {
      "from": "C3",
      "to": "A3",
      "semitones": 9,
      "intervalClass": 9
    },
    {
      "from": "A3",
      "to": "B3",
      "semitones": 2,
      "intervalClass": 2
    },
    {
      "from": "B3",
      "to": "C4",
      "semitones": 1,
      "intervalClass": 1
    },
    {
      "from": "C4",
      "to": "D4",
      "semitones": 2,
      "intervalClass": 2
    },
    {
      "from": "D4",
      "to": "E4",
      "semitones": 2,
      "intervalClass": 2
    },
    {
      "from": "E4",
      "to": "F4",
      "semitones": 1,
      "intervalClass": 1
    },
    {
      "from": "F4",
      "to": "E4",
      "semitones": -1,
      "intervalClass": 1
    },
    {
      "from": "E4",
      "to": "D#4",
      "semitones": -1,
      "intervalClass": 1
    },
    {
      "from": "D#4",
      "to": "D4",
      "semitones": -1,
      "intervalClass": 1
    },
    {
      "from": "D4",
      "to": "C#4",
      "semitones": -1,
      "intervalClass": 1
    },
    {
      "from": "C#4",
      "to": "C4",
      "semitones": -1,
      "intervalClass": 1
    }
  ]
}